<svg id="Capa_1" enable-background="new 0 0 512 512" height="512" viewBox="0 0 512 512" width="512" xmlns="http://www.w3.org/2000/svg" xmlns:xlink="http://www.w3.org/1999/xlink"><linearGradient id="SVGID_1_" gradientUnits="userSpaceOnUse" x1="256" x2="256" y1="476" y2="36"><stop offset="0" stop-color="#009efd"/><stop offset="1" stop-color="#2af598"/></linearGradient><g><g><g><path d="m240 356h-200v-200h200v-40h-240v280h240zm-40-80v-40h-40v40zm120 140v-140h40v-40h-40v-140c0-11.028 8.972-20 20-20h20v-40h-20c-15.356 0-29.377 5.805-40 15.327-10.624-9.522-24.645-15.327-40-15.327h-20v40h20c11.028 0 20 8.972 20 20v140h-40v40h40v140c0 11.028-8.972 20-20 20h-20v40h20c15.355 0 29.376-5.805 40-15.327 10.623 9.522 24.644 15.327 40 15.327h20v-40h-20c-11.028 0-20-8.972-20-20zm40-300v40h112v200h-112v40h152v-280zm-240 160v-40h-40v40z" fill="url(#SVGID_1_)"/></g></g></g></svg>