<svg id="Capa_1" enable-background="new 0 0 512 512" height="512" viewBox="0 0 512 512" width="512" xmlns="http://www.w3.org/2000/svg" xmlns:xlink="http://www.w3.org/1999/xlink"><linearGradient id="SVGID_1_" gradientUnits="userSpaceOnUse" x1="256" x2="256" y1="512" y2="0"><stop offset="0" stop-color="#009efd"/><stop offset="1" stop-color="#2af598"/></linearGradient><g><g><g><path d="m0 356h40v-40h-40zm0-80h40v-40h-40zm0-160h40v-40h-40zm0 80h40v-40h-40zm0-156h40v-40h-40zm0 396h40v-40h-40zm0 76h40v-40h-40zm356-512h-40v40h40zm-80 0h-40v40h40zm-200 512h40v-40h-40zm40-512h-40v40h40zm80 0h-40v40h40zm276 436h40v-40h-40zm0 76h40v-40h-40zm0-316h40v-40h-40zm0 160h40v-40h-40zm0-80h40v-40h-40zm0-160h40v-40h-40zm-316 396h40v-40h-40zm316-512v40h40v-40zm-236 512h40v-40h-40zm160-472h40v-40h-40zm-80 472h40v-40h-40zm80 0h40v-40h-40zm-120-436h-40v160h-160v40h160v160h40v-160h160v-40h-160z" fill="url(#SVGID_1_)"/></g></g></g></svg>