<svg id="Capa_1" enable-background="new 0 0 512.142 512.142" height="512" viewBox="0 0 512.142 512.142" width="512" xmlns="http://www.w3.org/2000/svg" xmlns:xlink="http://www.w3.org/1999/xlink"><linearGradient id="SVGID_1_" gradientUnits="userSpaceOnUse" x1="256.071" x2="256.071" y1="512.142" y2="0"><stop offset="0" stop-color="#009efd"/><stop offset="1" stop-color="#2af598"/></linearGradient><g><g><g><path d="m212.142 220h200v-40h-200zm100-220c-110.28 0-200 89.72-200 200 0 47.953 16.97 92.013 45.211 126.505l-157.353 157.353 28.284 28.284 157.353-157.353c34.492 28.241 78.552 45.211 126.505 45.211 110.28 0 200-89.72 200-200s-89.72-200-200-200zm0 360c-88.224 0-160-71.776-160-160s71.776-160 160-160 160 71.776 160 160-71.776 160-160 160z" fill="url(#SVGID_1_)"/></g></g></g></svg>