<svg id="Capa_1" enable-background="new 0 0 512 512" height="512" viewBox="0 0 512 512" width="512" xmlns="http://www.w3.org/2000/svg" xmlns:xlink="http://www.w3.org/1999/xlink"><linearGradient id="SVGID_1_" gradientUnits="userSpaceOnUse" x1="256" x2="256" y1="476" y2="36"><stop offset="0" stop-color="#009efd"/><stop offset="1" stop-color="#2af598"/></linearGradient><g><g><g><path d="m220 296v-60h-220v60h40v-20h50v160h-40v40h120v-40h-40v-160h50v20zm-100-260v160h40c0-22.054 17.944-40 40-40h56v260c0 11.028-8.972 20-20 20h-20v40h200v-40h-20c-11.028 0-20-8.972-20-20v-260h56c22.056 0 40 17.942 40 40h40v-160zm352 90.762c-11.777-6.83-25.434-10.762-40-10.762h-96v300c0 7.011 1.22 13.74 3.44 20h-46.88c2.22-6.26 3.44-12.989 3.44-20v-300h-96c-14.566 0-28.223 3.932-40 10.762v-50.762h312z" fill="url(#SVGID_1_)"/></g></g></g></svg>