<svg id="Capa_1" enable-background="new 0 0 512 512" height="512" viewBox="0 0 512 512" width="512" xmlns="http://www.w3.org/2000/svg" xmlns:xlink="http://www.w3.org/1999/xlink"><linearGradient id="SVGID_1_" gradientUnits="userSpaceOnUse" x1="256" x2="256" y1="511.971" y2=".029"><stop offset="0" stop-color="#009efd"/><stop offset="1" stop-color="#2af598"/></linearGradient><g><g><g><path d="m360 379.971c0 33.084 26.916 60 60 60s60-26.916 60-60c0-8.237-2.354-23.245-22.7-58.32-12.783-22.037-22.841-35.921-37.3-56.871-14.459 20.95-24.517 34.834-37.3 56.871-20.346 35.075-22.7 50.083-22.7 58.32zm60-42.837c4.524 7.58 19.72 34.039 20 42.853-.009 11.021-8.978 19.984-20 19.984-11.028 0-20-8.972-20-19.977.235-8.736 15.501-35.321 20-42.86zm-289.29 73.017c11.333 11.333 26.4 17.574 42.427 17.574 16.026 0 31.094-6.241 42.426-17.574l183.848-183.848-226.274-226.274-28.284 28.284 28.284 28.284-155.563 155.564c-11.333 11.332-17.574 26.4-17.574 42.426 0 16.027 6.241 31.094 17.574 42.426zm56.569-28.285c-3.777 3.777-8.8 5.858-14.142 5.858s-10.365-2.081-14.142-5.858l-78.995-78.995h186.274zm-141.421-141.421 155.563-155.563 141.421 141.421-36.568 36.568h-264.465c-1.172-2.57-1.809-5.375-1.809-8.284 0-5.342 2.081-10.365 5.858-14.142zm-45.858 231.526v40h512v-40z" fill="url(#SVGID_1_)"/></g></g></g></svg>