<svg id="Capa_1" enable-background="new 0 0 512.022 512.022" height="512" viewBox="0 0 512.022 512.022" width="512" xmlns="http://www.w3.org/2000/svg" xmlns:xlink="http://www.w3.org/1999/xlink"><linearGradient id="SVGID_1_" gradientUnits="userSpaceOnUse" x1="256.011" x2="256.011" y1="512.018" y2=".005"><stop offset="0" stop-color="#009efd"/><stop offset="1" stop-color="#2af598"/></linearGradient><g><g><g><path d="m482.711 239.873c-38.99-38.99-102.432-38.99-141.422 0l-127.279 127.278 28.285 28.284 127.279-127.279c23.447-23.448 61.4-23.451 84.853 0 23.447 23.448 23.451 61.401-.001 84.853l-113.137 113.138c-7.815 7.815-20.467 7.817-28.283 0-7.799-7.798-7.799-20.486 0-28.284l127.279-127.279-28.285-28.285-127.279 127.279c-11.332 11.333-17.573 26.4-17.573 42.426s6.241 31.094 17.573 42.426c23.447 23.449 61.401 23.452 84.854 0l113.135-113.136c39.081-39.08 39.085-102.336.001-141.421zm-442.711 232.131v-432h172v100h140v44.029c12.583-5.967 26.04-10.011 40-11.991v-62.331l-153.59-109.707h-238.41v512h247.131c-8.948-11.881-15.063-25.494-17.992-40zm212-413.136 57.591 41.137h-57.591z" fill="url(#SVGID_1_)"/></g></g></g></svg>