<svg id="Capa_1" enable-background="new 0 0 512 512" height="512" viewBox="0 0 512 512" width="512" xmlns="http://www.w3.org/2000/svg" xmlns:xlink="http://www.w3.org/1999/xlink"><linearGradient id="SVGID_1_" gradientUnits="userSpaceOnUse" x1="256" x2="256" y1="476" y2="36"><stop offset="0" stop-color="#009efd"/><stop offset="1" stop-color="#2af598"/></linearGradient><g><g><g><path d="m212 236c33.084 0 60-26.916 60-60s-26.916-60-60-60-60 26.916-60 60 26.916 60 60 60zm0-80c11.028 0 20 8.972 20 20s-8.972 20-20 20-20-8.972-20-20 8.972-20 20-20zm-212-120v440h512v-440zm472 400h-432v-51.914l95.874-99.181 75.759 79.746 120.367-120.367 140 140zm0-108.285-140-140-119.633 119.634-76.241-80.254-96.126 99.439v-250.534h432z" fill="url(#SVGID_1_)"/></g></g></g></svg>