<svg id="Capa_1" enable-background="new 0 0 512 512" height="512" viewBox="0 0 512 512" width="512" xmlns="http://www.w3.org/2000/svg" xmlns:xlink="http://www.w3.org/1999/xlink"><linearGradient id="SVGID_1_" gradientTransform="matrix(-1 0 0 1 512 0)" gradientUnits="userSpaceOnUse" x1="256" x2="256" y1="511.986" y2=".014"><stop offset="0" stop-color="#009efd"/><stop offset="1" stop-color="#2af598"/></linearGradient><g><g><g><path d="m458.427 130.696c23.451-23.451 23.447-61.404 0-84.853l-28.284-28.284c-23.395-23.394-61.459-23.394-84.854 0l-263.986 263.987c-15.199 15.199-25.244 35.289-28.284 56.568l-14.143 98.995 98.996-14.142c21.278-3.04 41.368-13.085 56.567-28.284zm-353.281 184.122 56.022 56.021c-8.327 6.631-18.393 11.022-28.953 12.531l-46.198 6.599 6.6-46.197c1.508-10.561 5.899-20.627 12.529-28.954zm197.717-198.263 56.568 56.568-169.705 169.705-56.569-56.568zm127.28-14.144-42.427 42.427-56.568-56.568 42.426-42.426c7.797-7.798 20.486-7.798 28.283 0l28.284 28.284c7.819 7.818 7.816 20.47.002 28.283zm-430.143 369.575v40h512v-40z" fill="url(#SVGID_1_)"/></g></g></g></svg>