<svg id="Capa_1" enable-background="new 0 0 512 512" height="512" viewBox="0 0 512 512" width="512" xmlns="http://www.w3.org/2000/svg" xmlns:xlink="http://www.w3.org/1999/xlink"><linearGradient id="SVGID_1_" gradientUnits="userSpaceOnUse" x1="256" x2="256" y1="512" y2="0"><stop offset="0" stop-color="#009efd"/><stop offset="1" stop-color="#2af598"/></linearGradient><g><g><g><path d="m296 280h-120v152h120c44.201 0 80-31.871 80-76 0-44.181-35.853-76-80-76zm0 112h-80v-72h80c19.877 0 40 12.366 40 36s-20.123 36-40 36zm40-232c0-44.112-35.888-80-80-80h-80v160h80c44.112 0 80-35.888 80-80zm-120-40h40c22.056 0 40 17.944 40 40s-17.944 40-40 40h-40zm180.506 115.899c12.803-23.389 19.494-49.28 19.494-75.899 0-88.224-71.776-160-160-160h-200v40h40v432h-40v40h240c88.573 0 160-68.01 160-156 0-49.071-22.505-91.04-59.494-120.101zm-100.506 236.101h-160v-432h120c66.168 0 120 53.832 120 120 0 24.877-7.875 48.972-22.773 69.68l-12.498 17.371 18.175 11.296c36.819 22.883 57.096 57.564 57.096 97.653 0 65.047-52.71 116-120 116z" fill="url(#SVGID_1_)"/></g></g></g></svg>